<?xml version="1.0" standalone="no"?>
<!DOCTYPE svg PUBLIC "-//W3C//DTD SVG 20010904//EN"
 "http://www.w3.org/TR/2001/REC-SVG-20010904/DTD/svg10.dtd">
<svg version="1.0" xmlns="http://www.w3.org/2000/svg"
 width="900.000000pt" height="900.000000pt" viewBox="0 0 900.000000 900.000000"
 preserveAspectRatio="xMidYMid meet">
<metadata>
Created by potrace 1.14, written by Peter Selinger 2001-2017
</metadata>
<g transform="translate(0.000000,900.000000) scale(0.100000,-0.100000)"
fill="#000000" stroke="none">
<path d="M4367 7380 c-521 -44 -1068 -239 -1527 -545 -511 -341 -850 -777
-946 -1215 -28 -127 -25 -394 5 -505 59 -219 174 -346 380 -419 109 -39 401
-81 414 -59 3 4 -12 46 -34 93 -54 121 -64 189 -64 440 1 237 15 353 65 545
126 479 441 856 904 1081 50 25 92 41 93 37 2 -5 -247 -1179 -552 -2611 -305
-1432 -555 -2605 -555 -2607 0 -3 249 -5 554 -5 434 0 555 3 558 13 3 6 142
657 309 1444 l304 1433 563 0 c309 0 562 -4 562 -8 0 -5 -137 -653 -305 -1442
-168 -788 -305 -1434 -305 -1436 0 -2 249 -4 554 -4 520 0 555 1 560 18 7 22
1206 5667 1213 5710 l6 32 -555 0 -555 0 -6 -27 c-22 -108 -479 -2232 -483
-2245 -5 -17 -41 -18 -568 -18 l-563 0 244 1133 c133 622 243 1137 243 1143 0
7 -15 14 -32 17 -64 11 -374 15 -481 7z"/>
</g>
</svg>
